<?xml version="1.0" encoding="UTF-8"?>
<!--Generator: Apple Native CoreSVG 341-->
<!DOCTYPE svg
PUBLIC "-//W3C//DTD SVG 1.1//EN"
       "http://www.w3.org/Graphics/SVG/1.1/DTD/svg11.dtd">
<svg version="1.1" xmlns="http://www.w3.org/2000/svg" xmlns:xlink="http://www.w3.org/1999/xlink" viewBox="0 0 28.8477 27.2363">
 <g>
  <rect height="27.2363" opacity="0" width="28.8477" x="0" y="0"/>
  <path d="M18.5808 16.0789C17.1671 17.2369 16.2598 18.9939 16.2598 20.9473C16.2598 21.445 16.3185 21.9297 16.4355 22.3926L7.69531 22.3926C6.65039 22.3926 6.02539 21.9043 6.02539 21.0938C6.02539 18.5742 9.17969 15.0977 14.2383 15.0977C15.911 15.0977 17.3752 15.4763 18.5808 16.0789ZM18.1543 9.0332C18.1543 11.4746 16.3379 13.3496 14.248 13.3496C12.1484 13.3496 10.3418 11.4746 10.3418 9.05273C10.3418 6.66016 12.1582 4.83398 14.248 4.83398C16.3379 4.83398 18.1543 6.62109 18.1543 9.0332Z" fill="white"/>
  <path d="M22.5586 25.9082C25.2441 25.9082 27.5195 23.6523 27.5195 20.9473C27.5195 18.2227 25.2734 15.9863 22.5586 15.9863C19.834 15.9863 17.5879 18.2227 17.5879 20.9473C17.5879 23.6719 19.834 25.9082 22.5586 25.9082Z" fill="#32d74b"/>
  <path d="M22.5586 24.0527C22.1875 24.0527 21.9531 23.8086 21.9531 23.457L21.9531 21.543L20.0488 21.543C19.6875 21.543 19.4434 21.3086 19.4434 20.9473C19.4434 20.5762 19.6875 20.3418 20.0488 20.3418L21.9531 20.3418L21.9531 18.4375C21.9531 18.0859 22.1875 17.8418 22.5586 17.8418C22.9199 17.8418 23.1543 18.0859 23.1543 18.4375L23.1543 20.3418L25.0586 20.3418C25.4199 20.3418 25.6543 20.5762 25.6543 20.9473C25.6543 21.3086 25.4199 21.543 25.0586 21.543L23.1543 21.543L23.1543 23.457C23.1543 23.8086 22.9199 24.0527 22.5586 24.0527Z" fill="white"/>
 </g>
</svg>
