<svg width="16" height="16" viewBox="0 0 16 16" fill="none" xmlns="http://www.w3.org/2000/svg">
  <path d="M7.25 2.5C4.765 2.5 2.75 4.515 2.75 7S4.765 11.5 7.25 11.5C8.406 11.5 9.463 11.049 10.256 10.306L13.226 13.275C13.518 13.568 13.994 13.568 14.287 13.275C14.579 12.983 14.579 12.507 14.287 12.214L11.317 9.244C12.061 8.451 12.5 7.394 12.5 7C12.5 4.515 10.485 2.5 7.25 2.5ZM7.25 3.5C9.942 3.5 11.5 5.058 11.5 7S9.942 10.5 7.25 10.5C4.308 10.5 3.75 5.058 3.75 7S5.308 3.5 7.25 3.5Z" fill="currentColor"/>
</svg>